<svg width="480" height="144" fill="none" xmlns="http://www.w3.org/2000/svg"><g clip-path="url(#a)"><path d="M160.306 42.612c-26.796 0-46.166 22.168-46.166 46.284 0 20.82 14.555 33.104 33.821 33.104 19.267 0 31.237-11.92 35-26.6-5.178 3.7-14.069 7.876-24.106 7.876-8.582 0-18.873-3.652-19.878-14.944 21.554-2.792 39.12-9.66 48.675-16.86.148-1.2.305-2.944.305-5.192 0-12.132-7.633-23.668-27.647-23.668h-.004Zm3.163 30.556h-23.487c2.111-10.784 9.784-18.724 17.313-18.724 5.117 0 7.525 2.696 7.525 9.288 0 2.996-.45 6.14-1.351 9.436Zm273.458-30.556c-27.55 0-47.113 21.268-47.113 48.532 0 19.92 15.656 30.856 35.074 30.856C452.435 122 472 100.732 472 73.468c0-19.924-15.653-30.856-35.073-30.856Zm-11.138 67.252c-6.321 0-9.783-5.092-9.783-14.68 0-19.024 7.672-40.444 20.02-40.444 6.325 0 9.787 5.092 9.787 14.68 0 19.024-7.833 40.444-20.024 40.444Zm-37.041-47.932c0 2.396-.237 5.072-.808 7.94l-9.876 50.628h-24.552l8.715-44.64c.45-2.244.63-4.192.63-5.992 0-7.04-3.758-10.184-10.535-10.184-2.709 0-6.07.868-8.22 1.796l-11.513 59.016h-24.54l14.913-76.392h24.54l-2.709 13.78c3.984-6.34 12.855-15.28 24.404-15.28 10.684 0 19.559 6.44 19.559 19.324l-.008.004Zm-78.524 4.976c0-13.78-12.067-24.296-28.958-24.296-21.019 0-31.992 13.76-35.228 26.6 6.588-4.78 15.978-7.876 24.106-7.876 7.577 0 15.09 2.456 15.09 10.036 0 .748 0 1.648-.149 2.844-19.363.776-47.267 11.084-47.267 32.356 0 8.836 6.423 15.428 16.359 15.428 9.937 0 19.162-6.74 24.585-15.28l-2.685 13.78h24.536l8.956-45.956c.45-2.696.659-5.244.659-7.64l-.004.004Zm-30.755 36.22c-3.01 1.348-6.877 2.244-9.739 2.244-6.175 0-9.205-3.38-9.205-7.876 0-9.488 11.295-15.504 22.208-11.072l-3.264 16.7v.004Zm-55.174.148c3.268 0 6.448-.924 10.58-4.024-3.787 12.852-14.387 22.748-25.75 22.748-13.948 0-18.354-11.672-15.448-26.6l7.388-37.808h-10.029l2.633-13.48h10.057l2.766-14.396 25.272-3.536-3.534 17.932h21.04c-1.576 7.84-6.48 13.48-16.53 13.48h-7.142l-7.228 37.012c-1.117 5.672 1.954 8.676 5.921 8.676l.004-.004ZM110.237 82.54c0 20.52-27.756 37.964-74.1 37.964H8L27.226 22h61.775c17.413 0 26.739 3.576 26.739 14.384 0 12.944-20.778 27.204-53.47 33.088L80.1 39.94l-27.248-.068L40.99 76.236l18.787-2.628-23.884 39.568L92.2 66.608c10.974 0 18.033 6.34 18.033 15.932h.004Z" fill="#FAF5F0"/></g><defs><clipPath id="a"><path fill="#fff" d="M8 22h464v100H8z"/></clipPath></defs></svg>